<?xml version="1.0" encoding="utf-8"?>
<!-- Generator: Adobe Illustrator 24.3.0, SVG Export Plug-In . SVG Version: 6.00 Build 0)  -->
<svg version="1.1" id="Layer_1" xmlns="http://www.w3.org/2000/svg" xmlns:xlink="http://www.w3.org/1999/xlink" x="0px" y="0px"
	 viewBox="0 0 841.89 595.28" style="enable-background:new 0 0 841.89 595.28;" xml:space="preserve">
<style type="text/css">
	.st0{fill:none;stroke:#00A651;stroke-width:0.5;stroke-miterlimit:10;}
	.st1{fill:#309AD6;}
	.st2{fill:#FFFFFF;}
	.st3{fill:none;stroke:#ED1C24;stroke-width:0.25;stroke-miterlimit:10;}
	.st4{fill:#60AADE;}
	.st5{fill:#A8D0EF;}
	.st6{fill:none;stroke:#FFFFFF;stroke-width:1.6448;stroke-miterlimit:10;}
	.st7{fill:none;stroke:#309AD6;stroke-miterlimit:10;}
</style>
<g>
	<path class="st1" d="M512.05,313.1H329.84c-8.11,0-14.69-6.58-14.69-14.69v-73.89c0-8.11,6.58-14.69,14.69-14.69h182.22
		c8.11,0,14.69,6.58,14.69,14.69v73.89C526.75,306.52,520.17,313.1,512.05,313.1z"/>
	<path class="st2" d="M332.57,291.76v-60.6c0-0.3,0.1-0.55,0.31-0.76c0.21-0.21,0.46-0.31,0.76-0.31h9.23
		c0.78,0,1.17,0.36,1.17,1.08v21.99c0,1.47,1.19,2.67,2.67,2.67h20.4c1.47,0,2.67-1.19,2.67-2.67v-21.99c0-0.3,0.1-0.55,0.31-0.76
		c0.21-0.21,0.46-0.31,0.76-0.31h9.32c0.3,0,0.55,0.11,0.76,0.31c0.21,0.21,0.31,0.46,0.31,0.76v60.6c0,0.3-0.11,0.55-0.31,0.76
		c-0.21,0.21-0.46,0.31-0.76,0.31h-9.32c-0.3,0-0.55-0.1-0.76-0.31c-0.21-0.21-0.31-0.46-0.31-0.76v-21.9
		c0-1.47-1.19-2.67-2.67-2.67h-20.4c-1.47,0-2.67,1.19-2.67,2.67v21.9c0,0.72-0.39,1.08-1.17,1.08h-9.23c-0.3,0-0.55-0.1-0.76-0.31
		C332.68,292.31,332.57,292.06,332.57,291.76z"/>
	<path class="st2" d="M393.73,278c-2.93-5.05-4.39-10.56-4.39-16.54c0-5.98,1.46-11.49,4.39-16.54c2.93-5.05,6.93-9.05,12.01-12.01
		c5.08-2.96,10.61-4.44,16.59-4.44c4.48,0,8.75,0.87,12.82,2.6c4.06,1.73,7.58,4.08,10.53,7.04c2.96,2.96,5.3,6.47,7.04,10.53
		c1.73,4.07,2.6,8.34,2.6,12.82c0,6.1-1.53,11.72-4.6,16.86c-0.64,1.07-0.47,2.43,0.42,3.29l2.27,2.2c1.06,1.02,1.08,2.71,0.07,3.76
		l-3.2,3.33c-1.02,1.06-2.72,1.09-3.78,0.07l-19.66-19.06c-1.05-1.02-1.08-2.71-0.07-3.76l3.2-3.33c1.03-1.07,2.72-1.09,3.78-0.06
		l5.54,5.4c1.36,1.33,3.68,0.85,4.34-0.93c0.91-2.46,1.37-5.05,1.37-7.77c0-6.28-2.21-11.62-6.63-16.05
		c-4.42-4.42-9.77-6.63-16.05-6.63s-11.63,2.21-16.05,6.63c-4.42,4.42-6.63,9.77-6.63,16.05c0,6.28,2.21,11.63,6.63,16.05
		c4.42,4.42,9.77,6.63,16.05,6.63c0.56,0,1.11-0.02,1.64-0.06c0.75-0.06,1.49,0.22,2.03,0.74l4.52,4.38
		c1.54,1.5,0.77,4.08-1.34,4.53c-2.24,0.48-4.53,0.72-6.85,0.72c-5.98,0-11.51-1.48-16.59-4.44
		C400.66,287.05,396.66,283.05,393.73,278z"/>
	<path class="st2" d="M507.41,292.84h-40.39c-1.47,0-2.67-1.19-2.67-2.67v-57.42c0-1.47,1.19-2.67,2.67-2.67h4.62
		c1.47,0,2.67,1.19,2.67,2.67v47.47c0,1.47,1.19,2.67,2.67,2.67h30.44c1.47,0,2.67,1.19,2.67,2.67v4.62
		C510.08,291.64,508.88,292.84,507.41,292.84z"/>
</g>
<g>
	<path class="st1" d="M344.43,347.92v4.37c0,0.48-0.39,0.87-0.87,0.87H319.8c-0.48,0-0.87-0.39-0.87-0.87v-31.2
		c0-0.48,0.39-0.87,0.87-0.87h23.15c0.48,0,0.87,0.39,0.87,0.87v4.37c0,0.48-0.39,0.87-0.87,0.87h-15.57
		c-0.48,0-0.87,0.39-0.87,0.87v5.41c0,0.48,0.39,0.87,0.87,0.87h13.55c0.48,0,0.87,0.39,0.87,0.87v4.18c0,0.48-0.39,0.87-0.87,0.87
		h-13.55c-0.48,0-0.87,0.39-0.87,0.87v5.88c0,0.48,0.39,0.87,0.87,0.87h16.18C344.04,347.04,344.43,347.44,344.43,347.92z"/>
	<path class="st1" d="M375.59,319.12v33.17c0,0.48-0.39,0.87-0.87,0.87h-5.26c-0.48,0-0.87-0.39-0.87-0.87l0,0
		c0-0.73-0.84-1.12-1.42-0.68c-1.69,1.28-3.85,1.93-6.49,1.93c-2.38,0-4.54-0.53-6.47-1.6c-1.93-1.07-3.44-2.59-4.54-4.57
		c-1.1-1.98-1.65-4.27-1.65-6.87c0-2.6,0.55-4.9,1.65-6.87c1.1-1.98,2.61-3.5,4.54-4.57c1.93-1.07,4.09-1.6,6.47-1.6
		c2.49,0,4.55,0.6,6.21,1.81c0.57,0.42,1.37,0,1.37-0.71v-9.45c0-0.48,0.39-0.87,0.87-0.87h5.59
		C375.2,318.24,375.59,318.63,375.59,319.12z M366.55,345.61c1.22-1.27,1.84-2.97,1.84-5.11c0-2.13-0.61-3.84-1.84-5.11
		c-1.22-1.27-2.76-1.91-4.61-1.91c-1.88,0-3.44,0.64-4.66,1.91c-1.22,1.27-1.84,2.97-1.84,5.11c0,2.13,0.61,3.84,1.84,5.11
		c1.22,1.27,2.78,1.91,4.66,1.91C363.79,347.51,365.33,346.88,366.55,345.61z"/>
	<path class="st1" d="M407.87,328.72v23.57c0,0.48-0.39,0.87-0.87,0.87h-5.22c-0.48,0-0.87-0.39-0.87-0.87v-0.14
		c0-0.73-0.83-1.12-1.41-0.68c-0.63,0.48-1.33,0.88-2.07,1.21c-1.35,0.58-2.81,0.87-4.38,0.87c-3.33,0-5.96-0.96-7.91-2.87
		c-1.95-1.91-2.92-4.75-2.92-8.52v-13.43c0-0.48,0.39-0.87,0.87-0.87h5.59c0.48,0,0.87,0.39,0.87,0.87v12.35
		c0,4.08,1.71,6.12,5.13,6.12c1.76,0,3.17-0.57,4.24-1.72c1.07-1.14,1.6-2.85,1.6-5.11v-11.65c0-0.48,0.39-0.87,0.87-0.87H407
		C407.48,327.84,407.87,328.23,407.87,328.72z"/>
	<path class="st1" d="M418.15,326.43h-8.79c-0.48,0-0.87-0.39-0.87-0.87v-4.46c0-0.48,0.39-0.87,0.87-0.87h26.96
		c0.48,0,0.87,0.39,0.87,0.87v4.46c0,0.48-0.39,0.87-0.87,0.87h-8.79c-0.48,0-0.87,0.39-0.87,0.87v24.98c0,0.48-0.39,0.87-0.87,0.87
		h-5.88c-0.48,0-0.87-0.39-0.87-0.87V327.3C419.03,326.82,418.63,326.43,418.15,326.43z"/>
	<path class="st1" d="M462.03,342.57h-17.15c-0.61,0-1.06,0.63-0.82,1.19c0.44,1.02,1.13,1.86,2.07,2.53
		c1.29,0.91,2.89,1.36,4.8,1.36c1.32,0,2.49-0.2,3.51-0.59c0.79-0.3,1.54-0.75,2.25-1.33c0.35-0.29,0.87-0.24,1.18,0.1l2.77,3.01
		c0.31,0.34,0.32,0.87-0.01,1.2c-2.36,2.33-5.65,3.5-9.89,3.5c-2.86,0-5.38-0.56-7.58-1.67c-2.2-1.11-3.89-2.66-5.08-4.64
		c-1.19-1.98-1.79-4.22-1.79-6.73c0-2.48,0.59-4.71,1.76-6.71c1.18-1.99,2.79-3.55,4.85-4.66c2.06-1.11,4.35-1.67,6.89-1.67
		c2.48,0,4.72,0.53,6.73,1.6c2.01,1.07,3.58,2.6,4.73,4.59c1.15,1.99,1.72,4.31,1.72,6.94c0,0.07-0.03,0.46-0.08,1.16
		C462.87,342.21,462.49,342.57,462.03,342.57z M445.66,334.43c-0.86,0.71-1.46,1.62-1.81,2.73c-0.18,0.56,0.26,1.13,0.84,1.13h10.26
		c0.59,0,1.02-0.57,0.84-1.13c-0.35-1.08-0.95-1.99-1.8-2.71c-1.13-0.96-2.51-1.44-4.14-1.44
		C448.19,333.02,446.79,333.49,445.66,334.43z"/>
	<path class="st1" d="M472.84,351.87c-2.15-1.11-3.83-2.66-5.04-4.64c-1.21-1.98-1.81-4.22-1.81-6.73c0-2.51,0.6-4.75,1.81-6.73
		c1.21-1.98,2.89-3.52,5.04-4.64c2.15-1.11,4.57-1.67,7.27-1.67c2.67,0,5,0.56,6.99,1.67c1.72,0.96,3.04,2.28,3.95,3.96
		c0.24,0.44,0.1,0.98-0.34,1.21l-4.24,2.27c-0.39,0.21-0.87,0.1-1.12-0.26c-1.29-1.89-3.06-2.83-5.29-2.83
		c-1.91,0-3.5,0.63-4.75,1.88c-1.25,1.26-1.88,2.97-1.88,5.13s0.63,3.87,1.88,5.13s2.84,1.88,4.75,1.88c2.26,0,4.02-0.94,5.29-2.82
		c0.25-0.37,0.74-0.48,1.13-0.27l4.22,2.3c0.44,0.24,0.58,0.79,0.33,1.22c-0.91,1.62-2.23,2.92-3.94,3.89
		c-1.99,1.13-4.32,1.69-6.99,1.69C477.42,353.54,474.99,352.98,472.84,351.87z"/>
	<path class="st1" d="M518.49,330.29c1.93,1.88,2.89,4.68,2.89,8.38v13.62c0,0.48-0.39,0.87-0.87,0.87h-5.59
		c-0.48,0-0.87-0.39-0.87-0.87V339.8c0-2.01-0.44-3.51-1.32-4.49c-0.88-0.99-2.15-1.48-3.81-1.48c-1.85,0-3.33,0.57-4.42,1.72
		c-1.1,1.15-1.65,2.85-1.65,5.11v11.65c0,0.48-0.39,0.87-0.87,0.87h-5.59c-0.48,0-0.87-0.39-0.87-0.87v-33.17
		c0-0.48,0.39-0.87,0.87-0.87h5.59c0.48,0,0.87,0.39,0.87,0.87v9.52c0,0.69,0.77,1.12,1.34,0.74c0.66-0.45,1.39-0.83,2.19-1.13
		c1.38-0.52,2.89-0.78,4.52-0.78C514.03,327.47,516.56,328.41,518.49,330.29z"/>
</g>
</svg>
